<?xml version="1.0" standalone="no"?><!DOCTYPE svg PUBLIC "-//W3C//DTD SVG 1.1//EN" "http://www.w3.org/Graphics/SVG/1.1/DTD/svg11.dtd"><svg t="1502265313146" class="icon" style="" viewBox="0 0 1024 1024" version="1.1" xmlns="http://www.w3.org/2000/svg" p-id="10604" xmlns:xlink="http://www.w3.org/1999/xlink" width="128" height="128"><defs><style type="text/css"></style></defs><path d="M530.974736 573.730691c37.806584-57.455494 176.292805-263.933839 228.157849-308.35093-66.134971 157.528888-196.403873 319.609579-274.364661 474.165067 144.019007 48.795405 209.288273-9.045096 288.740745-76.373414l-78.730803-15.107223c99.986674-32.764414 93.000729-20.63054 128.017172-69.031618 27.780007-38.38392 50.835368-90.1913 59.28409-144.298106l-65.066919 8.102091c20.755587-12.085779 66.991206-33.322512 74.3335-45.167767 19.63939-31.667456 71.225535-334.514456 71.822109-397.464709-198.838013 1.837886-516.532277 417.238865-539.513079 615.766879-23.122744 199.608027-250.3183 501.22171 107.319-42.242512zm296.400016 112.236124c59.303029 35.362475 94.579133 81.030378 94.579133 131.92356 0 274.538101-861.11971 274.538101-861.11971 0 0-126.073448 195.604952-182.614893 296.938776-198.106874-2.386365 16.964377-7.592087 34.265517-14.395172 51.961233-69.647131 12.740116-233.594296 59.861227-233.594296 146.145641 0 207.382925 763.220796 207.382925 763.220796 0 0-36.392101-32.783652-71.119377-86.948271-99.034249 13.865931-10.09396 27.472051-21.236733 41.318745-32.88951z" p-id="10605" fill="#3db8c1"></path></svg>